<svg width="160" height="161" viewBox="0 0 160 161" fill="none" xmlns="http://www.w3.org/2000/svg">
<path fill-rule="evenodd" clip-rule="evenodd" d="M26 143C40.3594 143 52 131.359 52 117C52 102.641 40.3594 91 26 91C11.6406 91 0 102.641 0 117C0 131.359 11.6406 143 26 143ZM26 133C34.8366 133 42 125.837 42 117C42 108.163 34.8366 101 26 101C17.1634 101 10 108.163 10 117C10 125.837 17.1634 133 26 133Z" fill="white"/>
<path fill-rule="evenodd" clip-rule="evenodd" d="M134 143C148.359 143 160 131.359 160 117C160 102.641 148.359 91 134 91C119.641 91 108 102.641 108 117C108 131.359 119.641 143 134 143ZM134 133C142.837 133 150 125.837 150 117C150 108.163 142.837 101 134 101C125.163 101 118 108.163 118 117C118 125.837 125.163 133 134 133Z" fill="white"/>
<path fill-rule="evenodd" clip-rule="evenodd" d="M80 52C94.3594 52 106 40.3594 106 26C106 11.6406 94.3594 0 80 0C65.6406 0 54 11.6406 54 26C54 40.3594 65.6406 52 80 52ZM80 42C88.8366 42 96 34.8366 96 26C96 17.1634 88.8366 10 80 10C71.1634 10 64 17.1634 64 26C64 34.8366 71.1634 42 80 42Z" fill="white"/>
<path fill-rule="evenodd" clip-rule="evenodd" d="M104 26.9998C104 29.2495 103.69 31.4269 103.112 33.4917C123.707 42.9956 138 63.8286 138 87.9998C138 90.0758 137.895 92.1271 137.689 94.1488C142.372 94.6709 146.648 96.5407 150.121 99.3615C150.7 95.6591 151 91.8645 151 87.9998C151 56.3664 130.879 29.4324 102.737 19.2979C103.556 21.7154 104 24.3058 104 26.9998ZM128.181 141.017C123.733 139.702 119.823 137.131 116.861 133.716C106.392 142.624 92.8236 148 78 148C64.1826 148 51.4561 143.329 41.3132 135.481C37.5743 138.582 32.8789 140.571 27.7351 140.938C40.8249 153.371 58.5216 161 78 161C97.437 161 115.1 153.403 128.181 141.017ZM18 87.9998C18 62.4344 33.9894 40.6034 56.5135 31.9617C56.177 30.3607 56 28.7009 56 26.9998C56 23.7507 56.6457 20.6524 57.8157 17.8262C27.3164 26.5828 5 54.6852 5 87.9998C5 93.1267 5.52851 98.13 6.53401 102.958C9.4323 98.9475 13.5398 95.8679 18.3221 94.2542C18.1091 92.1985 18 90.1119 18 87.9998Z" fill="white"/>
</svg>
