<svg width="72" height="72" viewBox="0 0 72 72" fill="none" xmlns="http://www.w3.org/2000/svg">
<path fill-rule="evenodd" clip-rule="evenodd" d="M64 72H8C3.58203 72 0 68.4185 0 64V8C0 3.58154 3.58203 0 8 0H64C68.418 0 72 3.58154 72 8V64C72 68.4185 68.418 72 64 72ZM42.5 25.167H57.667V20.8335H42.5V25.167ZM50.3545 53.3335C57.0098 53.3335 60.4482 49.6436 61.4062 46.8335H54.542C52.1484 49.6133 44.8838 49.3945 44.6016 42.4375H61.9932C62.0234 40.3745 61.957 38.897 61.7881 37.8008C60.8975 32.0718 56.8193 28.2109 50.1416 28.2109C43.3359 28.2109 38.2988 32.5659 38.2988 41.0376C38.2988 49.5874 43.6934 53.3335 50.3545 53.3335ZM55.5107 38.167H44.7529C45.2109 35.0229 46.9678 33.3589 50.1436 33.3589C53.0498 33.3589 55.2832 34.8149 55.5107 38.167ZM10 53.3076H24.0098C38.708 53.3076 38.457 38.5718 30.958 35.8418C37.1553 32.6743 36.9297 21.0547 25.0645 20.8789H10V53.3076ZM24.2656 33.8335H16.5V27.3335H23.5889C30.5615 27.3335 29.6992 33.8335 24.2656 33.8335ZM16.5 40.3335H23.8467C29.9531 40.3335 30.3584 46.8682 23.7393 46.8682H16.5V40.3335Z" fill="#8C8C8C"/>
</svg>
