<svg width="72" height="72" viewBox="0 0 72 72" fill="none" xmlns="http://www.w3.org/2000/svg">
<g clip-path="url(#clip0_238_316)">
<path fill-rule="evenodd" clip-rule="evenodd" d="M8 72H64C68.4183 72 72 68.4183 72 64V8C72 3.58172 68.4183 0 64 0H8C3.58172 0 0 3.58172 0 8V64C0 68.4183 3.58172 72 8 72Z" fill="#8C8C8C"/>
<g clip-path="url(#clip1_238_316)">
<path d="M57.6667 25.1666H42.5V20.8333H57.6667V25.1666ZM61.4063 46.8333C60.4487 49.6435 57.0102 53.3333 50.3542 53.3333C43.6938 53.3333 38.2988 49.5871 38.2988 41.0375C38.2988 32.5658 43.3363 28.2108 50.1418 28.2108C56.8195 28.2108 60.8972 32.0718 61.7877 37.8005C61.9567 38.8968 62.0238 40.3745 61.9935 42.4371H44.6017C44.8833 49.3943 52.1482 49.6131 54.5423 46.8333H61.4063ZM44.7533 38.1666H55.5108C55.2833 34.8148 53.0495 33.3588 50.144 33.3588C46.9677 33.3588 45.2105 35.0228 44.7533 38.1666ZM24.0097 53.3073H10V20.8788H25.0648C36.9295 21.0543 37.1548 32.6741 30.9582 35.8418C38.457 38.5718 38.7083 53.3073 24.0097 53.3073ZM16.5 33.8333H24.2653C29.6993 33.8333 30.5617 27.3333 23.5893 27.3333H16.5V33.8333ZM23.8472 40.3333H16.5V46.868H23.7388C30.358 46.868 29.9528 40.3333 23.8472 40.3333Z" fill="white"/>
</g>
</g>
<defs>
<clipPath id="clip0_238_316">
<rect width="72" height="72" fill="white"/>
</clipPath>
<clipPath id="clip1_238_316">
<rect width="52" height="52" fill="white" transform="translate(10 10)"/>
</clipPath>
</defs>
</svg>
