<svg width="100" height="100" viewBox="0 0 100 100" fill="none" xmlns="http://www.w3.org/2000/svg">
<g clip-path="url(#clip0_324_1054)">
<path d="M100 0H0V100H100V0Z" fill="white"/>
<rect x="4" y="4" width="92" height="92" rx="4" fill="#2F54EB"/>
<path d="M49.45 67H40.6L38.3 59.55H27L24.65 67H16L27.6 34H37.9L49.45 67ZM28.6 53.7H36.7L32.65 40.35L28.6 53.7ZM67.2878 34C72.4547 34 76.4047 35.4334 79.1378 38.3C81.9047 41.1666 83.2878 45.2334 83.2878 50.5C83.2878 55.7666 81.9047 59.8334 79.1378 62.7C76.4047 65.5666 72.4547 67 67.2878 67H53.2878V34H67.2878ZM66.4378 60.5C69.2378 60.5 71.2712 59.6666 72.5378 58C73.8378 56.3 74.4878 53.8 74.4878 50.5C74.4878 47.2 73.8378 44.7166 72.5378 43.05C71.2712 41.35 69.2378 40.5 66.4378 40.5H61.8878V60.5H66.4378Z" fill="white"/>
</g>
<defs>
<clipPath id="clip0_324_1054">
<rect width="100" height="100" fill="white"/>
</clipPath>
</defs>
</svg>
