<svg width="1239" height="713" viewBox="0 0 1239 713" fill="none" xmlns="http://www.w3.org/2000/svg">
<path d="M250.979 185.394C246.12 203.043 238.321 217.623 227.581 229.134C216.841 240.389 204.055 248.702 189.223 254.074C174.392 259.19 158.026 261.747 140.126 261.747C114.554 261.747 92.435 256.632 73.7677 246.4C55.1005 235.913 40.7804 220.949 30.8074 201.509C20.8345 182.068 15.8481 158.663 15.8481 131.294C15.8481 103.924 20.8345 80.519 30.8074 61.0788C40.7804 41.6386 55.1005 26.8027 73.7677 16.571C92.435 6.08358 114.427 0.839844 139.742 0.839844C157.387 0.839844 173.625 3.39776 188.456 8.51359C203.288 13.3736 215.818 20.9195 226.047 31.1512C236.275 41.3828 243.563 54.5561 247.91 70.671L189.991 94.076C186.411 78.2169 180.529 67.3457 172.346 61.4625C164.419 55.5793 154.318 52.6377 142.044 52.6377C130.025 52.6377 119.541 55.5793 110.591 61.4625C101.896 67.3457 95.12 76.1705 90.2614 87.937C85.6585 99.4476 83.3571 113.9 83.3571 131.294C83.3571 148.432 85.5307 162.884 89.8778 174.65C94.225 186.417 100.746 195.242 109.44 201.125C118.39 207.008 129.386 209.95 142.427 209.95C154.702 209.95 165.058 206.624 173.497 199.974C182.191 193.067 188.073 182.58 191.141 168.511L250.979 185.394Z" fill="#1D39C4"/>
<path d="M374.361 62.2299C394.562 62.2299 412.207 66.1946 427.294 74.1242C442.637 81.7979 454.528 93.1807 462.966 108.272C471.661 123.108 476.008 141.014 476.008 161.989C476.008 182.964 471.661 200.997 462.966 216.089C454.528 230.925 442.637 242.307 427.294 250.237C412.207 257.911 394.562 261.747 374.361 261.747C354.671 261.747 337.154 257.911 321.811 250.237C306.468 242.307 294.45 230.925 285.755 216.089C277.317 200.997 273.097 182.964 273.097 161.989C273.097 141.014 277.317 123.108 285.755 108.272C294.45 93.1807 306.468 81.7979 321.811 74.1242C337.154 66.1946 354.671 62.2299 374.361 62.2299ZM374.361 108.656C366.945 108.656 360.552 110.447 355.182 114.028C349.812 117.609 345.721 123.364 342.908 131.294C340.095 139.223 338.689 149.455 338.689 161.989C338.689 174.522 340.095 184.754 342.908 192.684C345.721 200.357 349.812 206.113 355.182 209.95C360.552 213.531 366.945 215.321 374.361 215.321C382.032 215.321 388.553 213.531 393.923 209.95C399.293 206.113 403.385 200.357 406.198 192.684C409.01 184.754 410.417 174.522 410.417 161.989C410.417 149.455 409.01 139.223 406.198 131.294C403.385 123.364 399.293 117.609 393.923 114.028C388.553 110.447 382.032 108.656 374.361 108.656Z" fill="#1D39C4"/>
<path d="M512.69 257.911V66.0668H570.226L572.911 107.505C577.77 93.1807 584.93 82.0537 594.391 74.1242C604.109 66.1946 616.383 62.2299 631.215 62.2299C636.073 62.2299 640.165 62.6136 643.489 63.3809C647.069 64.1483 649.882 65.1715 651.928 66.4504L645.407 120.167C642.85 119.144 639.525 118.376 635.434 117.865C631.598 117.097 626.867 116.714 621.242 116.714C613.57 116.714 606.41 118.376 599.762 121.701C593.113 125.027 587.743 130.015 583.651 136.665C579.816 143.06 577.898 151.245 577.898 161.221V257.911H512.69Z" fill="#1D39C4"/>
<path d="M768.852 261.747C747.627 261.747 729.216 257.783 713.617 249.853C698.274 241.924 686.383 230.541 677.945 215.705C669.506 200.869 665.287 182.964 665.287 161.989C665.287 141.014 669.506 123.108 677.945 108.272C686.383 93.4365 698.146 82.0537 713.233 74.1242C728.576 66.1946 746.093 62.2299 765.783 62.2299C785.985 62.2299 803.118 66.1946 817.182 74.1242C831.502 81.7979 842.37 92.5412 849.786 106.354C857.202 119.911 860.909 135.514 860.909 153.164C860.909 157.768 860.782 162.372 860.526 166.977C860.27 171.581 859.887 175.418 859.375 178.487H707.48V143.572H830.607L799.538 155.466C799.538 140.118 796.725 128.352 791.099 120.167C785.729 111.981 777.29 107.889 765.783 107.889C757.6 107.889 750.568 109.807 744.687 113.644C739.061 117.481 734.714 123.492 731.645 131.677C728.832 139.863 727.426 150.35 727.426 163.14C727.426 175.674 729.088 185.905 732.412 193.835C735.736 201.509 740.467 207.136 746.604 210.717C752.742 214.042 760.157 215.705 768.852 215.705C778.569 215.705 786.24 213.787 791.866 209.95C797.748 206.113 802.095 200.741 804.908 193.835L857.074 211.101C853.494 222.1 847.229 231.436 838.279 239.11C829.584 246.528 819.1 252.155 806.826 255.992C794.807 259.829 782.149 261.747 768.852 261.747Z" fill="#1D39C4"/>
<path d="M258.267 455.769L168.511 709.003H91.0286L0.888672 455.769H70.3156L116.728 608.86L130.537 658.74L143.962 609.628L191.141 455.769H258.267Z" fill="#1D39C4"/>
<path d="M367.987 587.374C367.987 578.421 365.43 571.387 360.315 566.271C355.457 560.899 348.808 558.214 340.37 558.214C331.931 558.214 324.643 560.388 318.506 564.736C312.624 568.829 308.533 576.247 306.232 586.99L250.997 573.945C254.577 555.528 264.038 540.82 279.381 529.821C294.724 518.822 316.332 513.322 344.205 513.322C362.873 513.322 378.727 516.136 391.769 521.763C405.066 527.135 415.167 535.32 422.071 546.319C429.231 557.063 432.811 570.364 432.811 586.223V656.438C432.811 666.414 437.286 671.402 446.236 671.402C450.839 671.402 454.547 670.89 457.36 669.867L453.524 707.084C445.852 710.666 436.519 712.456 425.523 712.456C415.55 712.456 406.728 710.921 399.056 707.852C391.385 704.527 385.376 699.667 381.028 693.272C376.681 686.621 374.508 678.308 374.508 668.332V666.03L381.796 663.344C381.796 674.343 378.471 683.552 371.823 690.97C365.43 698.388 356.991 703.887 346.507 707.468C336.278 711.049 325.538 712.84 314.287 712.84C301.245 712.84 289.866 710.793 280.149 706.701C270.431 702.608 262.888 696.725 257.518 689.051C252.403 681.122 249.846 671.402 249.846 659.891C249.846 646.078 253.938 634.695 262.121 625.743C270.559 616.534 283.729 610.139 301.629 606.558L374.124 591.594L373.741 626.126L336.917 633.8C329.246 635.335 323.492 637.637 319.657 640.707C316.077 643.52 314.287 647.869 314.287 653.752C314.287 659.379 316.332 663.6 320.424 666.414C324.515 669.227 329.374 670.634 335 670.634C339.347 670.634 343.438 669.995 347.274 668.716C351.365 667.437 354.945 665.518 358.014 662.96C361.083 660.147 363.512 656.693 365.302 652.601C367.092 648.508 367.987 643.648 367.987 638.021V587.374Z" fill="#1D39C4"/>
<path d="M547.539 435.817V643.776C547.539 652.217 548.945 658.228 551.758 661.809C554.571 665.39 559.301 667.181 565.95 667.181C569.786 667.181 572.982 666.925 575.539 666.414C578.097 665.902 581.165 665.135 584.745 664.111L580.526 703.248C575.923 706.061 569.914 708.363 562.498 710.154C555.082 711.945 547.794 712.84 540.634 712.84C520.177 712.84 505.345 708.108 496.14 698.643C486.934 689.179 482.331 673.704 482.331 652.217V435.817H547.539Z" fill="#1D39C4"/>
<path d="M673.408 712.84C660.366 712.84 648.859 710.666 638.886 706.317C629.169 701.713 621.497 694.423 615.872 684.447C610.246 674.471 607.433 661.426 607.433 645.311V517.159H672.641V629.963C672.641 642.241 675.07 650.81 679.928 655.67C684.787 660.53 691.691 662.96 700.641 662.96C705.244 662.96 709.591 662.193 713.683 660.658C717.774 658.868 721.354 656.31 724.423 652.985C727.492 649.403 729.793 644.927 731.327 639.555C733.117 633.928 734.012 627.405 734.012 619.987V517.159H799.22V709.003H740.917L738.999 672.936C732.862 686.493 724.295 696.597 713.299 703.248C702.304 709.642 689.006 712.84 673.408 712.84Z" fill="#1D39C4"/>
<path d="M939.662 712.84C918.438 712.84 900.026 708.875 884.427 700.945C869.084 693.016 857.194 681.633 848.755 666.797C840.316 651.961 836.097 634.056 836.097 613.081C836.097 592.106 840.316 574.201 848.755 559.365C857.194 544.529 868.957 533.146 884.044 525.217C899.387 517.287 916.903 513.322 936.593 513.322C956.795 513.322 973.928 517.287 987.992 525.217C1002.31 532.89 1013.18 543.633 1020.6 557.446C1028.01 571.003 1031.72 586.607 1031.72 604.256C1031.72 608.86 1031.59 613.465 1031.34 618.069C1031.08 622.673 1030.7 626.51 1030.19 629.58H878.29V594.664H1001.42L970.348 606.558C970.348 591.211 967.535 579.444 961.909 571.259C956.539 563.074 948.101 558.981 936.593 558.981C928.41 558.981 921.378 560.899 915.497 564.736C909.871 568.573 905.524 574.584 902.455 582.77C899.642 590.955 898.236 601.442 898.236 614.232C898.236 626.766 899.898 636.998 903.222 644.927C906.547 652.601 911.278 658.228 917.415 661.809C923.552 665.135 930.968 666.797 939.662 666.797C949.379 666.797 957.051 664.879 962.676 661.042C968.558 657.205 972.905 651.833 975.718 644.927L1027.88 662.193C1024.3 673.192 1018.04 682.528 1009.09 690.202C1000.39 697.62 989.91 703.248 977.636 707.084C965.617 710.921 952.959 712.84 939.662 712.84Z" fill="#1D39C4"/>
<path d="M1148.75 712.84C1129.57 712.84 1111.67 709.77 1095.05 703.631C1078.68 697.237 1065.13 688.156 1054.39 676.389L1085.08 640.323C1091.47 648.508 1099.91 655.415 1110.39 661.042C1121.13 666.414 1133.02 669.099 1146.06 669.099C1153.99 669.099 1160.51 667.948 1165.63 665.646C1170.74 663.344 1173.3 659.763 1173.3 654.903C1173.3 651.322 1172.02 648.508 1169.46 646.462C1166.9 644.16 1161.79 642.241 1154.12 640.707L1127.27 635.335C1103.23 630.475 1086.1 623.313 1075.87 613.848C1065.9 604.128 1060.91 591.467 1060.91 575.863C1060.91 565.376 1064.11 555.4 1070.5 545.936C1076.89 536.216 1086.74 528.414 1100.03 522.531C1113.33 516.392 1130.34 513.322 1151.05 513.322C1170.48 513.322 1187.62 516.136 1202.45 521.763C1217.28 527.391 1229.04 535.576 1237.74 546.319L1206.67 581.619C1200.53 573.945 1192.6 567.934 1182.89 563.585C1173.17 559.237 1163.45 557.063 1153.74 557.063C1147.6 557.063 1142.36 557.702 1138.01 558.981C1133.92 560.004 1130.85 561.539 1128.8 563.585C1126.76 565.632 1125.73 568.19 1125.73 571.259C1125.73 574.584 1127.27 577.526 1130.34 580.084C1133.66 582.386 1139.67 584.432 1148.37 586.223L1183.27 593.129C1202.96 596.71 1217.15 603.233 1225.85 612.697C1234.54 622.162 1238.89 633.544 1238.89 646.846C1238.89 659.379 1235.56 670.634 1228.92 680.61C1222.27 690.586 1212.29 698.515 1199 704.399C1185.7 710.026 1168.95 712.84 1148.75 712.84Z" fill="#1D39C4"/>
</svg>
