<svg width="1238" height="712" viewBox="0 0 1238 712" fill="none" xmlns="http://www.w3.org/2000/svg">
<path d="M250.09 184.554C245.232 202.203 237.432 216.784 226.692 228.294C215.952 239.549 203.166 247.862 188.335 253.234C173.503 258.35 157.137 260.908 139.237 260.908C113.666 260.908 91.5463 255.792 72.8791 245.56C54.2118 235.073 39.8917 220.109 29.9188 200.669C19.9458 181.228 14.9594 157.824 14.9594 130.454C14.9594 103.084 19.9458 79.6791 29.9188 60.239C39.8917 40.7988 54.2118 25.9629 72.8791 15.7312C91.5463 5.24373 113.538 0 138.854 0C156.498 0 172.736 2.55792 187.568 7.67375C202.399 12.5338 214.929 20.0796 225.158 30.3113C235.387 40.543 242.674 53.7163 247.022 69.8312L189.102 93.2361C185.522 77.377 179.64 66.5059 171.458 60.6227C163.53 54.7394 153.43 51.7978 141.155 51.7978C129.137 51.7978 118.652 54.7394 109.702 60.6227C101.008 66.5059 94.2313 75.3307 89.3727 87.0971C84.7699 98.6077 82.4684 113.06 82.4684 130.454C82.4684 147.592 84.642 162.044 88.9892 173.811C93.3363 185.577 99.8571 194.402 108.551 200.285C117.501 206.168 128.497 209.11 141.539 209.11C153.813 209.11 164.17 205.785 172.608 199.134C181.303 192.228 187.184 181.74 190.253 167.672L250.09 184.554Z" fill="#1D39C4"/>
<path d="M373.472 61.39C393.674 61.39 411.318 65.3548 426.405 73.2843C441.748 80.9581 453.639 92.3408 462.078 107.433C470.772 122.268 475.119 140.174 475.119 161.149C475.119 182.124 470.772 200.157 462.078 215.249C453.639 230.085 441.748 241.467 426.405 249.397C411.318 257.071 393.674 260.908 373.472 260.908C353.782 260.908 336.266 257.071 320.923 249.397C305.58 241.467 293.561 230.085 284.867 215.249C276.428 200.157 272.209 182.124 272.209 161.149C272.209 140.174 276.428 122.268 284.867 107.433C293.561 92.3408 305.58 80.9581 320.923 73.2843C336.266 65.3548 353.782 61.39 373.472 61.39ZM373.472 107.816C366.056 107.816 359.664 109.607 354.294 113.188C348.923 116.769 344.832 122.524 342.019 130.454C339.206 138.383 337.8 148.615 337.8 161.149C337.8 173.683 339.206 183.914 342.019 191.844C344.832 199.518 348.923 205.273 354.294 209.11C359.664 212.691 366.056 214.481 373.472 214.481C381.144 214.481 387.664 212.691 393.034 209.11C398.405 205.273 402.496 199.518 405.309 191.844C408.122 183.914 409.528 173.683 409.528 161.149C409.528 148.615 408.122 138.383 405.309 130.454C402.496 122.524 398.405 116.769 393.034 113.188C387.664 109.607 381.144 107.816 373.472 107.816Z" fill="#1D39C4"/>
<path d="M511.802 257.071V65.2269H569.338L572.023 106.665C576.881 92.3408 584.041 81.2139 593.503 73.2843C603.22 65.3548 615.494 61.39 630.326 61.39C635.185 61.39 639.276 61.7737 642.6 62.5411C646.18 63.3085 648.993 64.3316 651.039 65.6106L644.518 119.327C641.961 118.304 638.637 117.536 634.545 117.025C630.709 116.257 625.979 115.874 620.353 115.874C612.682 115.874 605.521 117.536 598.873 120.862C592.224 124.187 586.854 129.175 582.763 135.825C578.927 142.22 577.009 150.406 577.009 160.381V257.071H511.802Z" fill="#1D39C4"/>
<path d="M767.963 260.908C746.739 260.908 728.327 256.943 712.728 249.013C697.385 241.084 685.495 229.701 677.056 214.865C668.617 200.029 664.398 182.124 664.398 161.149C664.398 140.174 668.617 122.268 677.056 107.433C685.495 92.5966 697.258 81.2139 712.345 73.2843C727.688 65.3548 745.204 61.39 764.894 61.39C785.096 61.39 802.229 65.3548 816.293 73.2843C830.613 80.9581 841.481 91.7014 848.897 105.514C856.313 119.071 860.021 134.674 860.021 152.324C860.021 156.928 859.893 161.533 859.637 166.137C859.381 170.741 858.998 174.578 858.487 177.647H706.591V142.732H829.719L798.649 154.626C798.649 139.279 795.836 127.512 790.21 119.327C784.84 111.142 776.402 107.049 764.894 107.049C756.712 107.049 749.679 108.967 743.798 112.804C738.172 116.641 733.825 122.652 730.756 130.838C727.943 139.023 726.537 149.51 726.537 162.3C726.537 174.834 728.199 185.065 731.523 192.995C734.848 200.669 739.579 206.296 745.716 209.877C751.853 213.202 759.269 214.865 767.963 214.865C777.68 214.865 785.352 212.947 790.977 209.11C796.859 205.273 801.206 199.901 804.019 192.995L856.185 210.261C852.605 221.26 846.34 230.596 837.39 238.27C828.696 245.688 818.211 251.315 805.937 255.152C793.918 258.989 781.26 260.908 767.963 260.908Z" fill="#1D39C4"/>
<path d="M257.378 454.929L167.622 708.163H90.1399L0 454.929H69.4269L115.839 608.021L129.648 657.9L143.073 608.788L190.253 454.929H257.378Z" fill="#1D39C4"/>
<path d="M367.098 586.534C367.098 577.581 364.541 570.547 359.427 565.431C354.568 560.06 347.92 557.374 339.481 557.374C331.042 557.374 323.754 559.548 317.617 563.896C311.736 567.989 307.644 575.407 305.343 586.15L250.108 573.105C253.688 554.688 263.15 539.98 278.493 528.981C293.836 517.982 315.444 512.482 343.317 512.482C361.984 512.482 377.838 515.296 390.88 520.923C404.177 526.295 414.278 534.48 421.182 545.479C428.342 556.223 431.922 569.524 431.922 585.383V655.598C431.922 665.574 436.397 670.562 445.347 670.562C449.95 670.562 453.658 670.05 456.471 669.027L452.635 706.245C444.964 709.826 435.63 711.616 424.634 711.616C414.661 711.616 405.839 710.081 398.168 707.012C390.496 703.687 384.487 698.827 380.14 692.432C375.793 685.781 373.619 677.468 373.619 667.492V665.19L380.907 662.504C380.907 673.503 377.583 682.712 370.934 690.13C364.541 697.548 356.102 703.047 345.618 706.628C335.389 710.209 324.649 712 313.398 712C300.356 712 288.977 709.954 279.26 705.861C269.543 701.768 261.999 695.885 256.629 688.211C251.515 680.282 248.957 670.562 248.957 659.051C248.957 645.238 253.049 633.856 261.232 624.903C269.67 615.694 282.84 609.299 300.74 605.718L373.235 590.755L372.852 625.286L336.029 632.96C328.357 634.495 322.604 636.797 318.768 639.867C315.188 642.68 313.398 647.029 313.398 652.912C313.398 658.539 315.444 662.76 319.535 665.574C323.627 668.387 328.485 669.794 334.111 669.794C338.458 669.794 342.55 669.155 346.385 667.876C350.477 666.597 354.057 664.678 357.125 662.121C360.194 659.307 362.623 655.854 364.413 651.761C366.203 647.668 367.098 642.808 367.098 637.181V586.534Z" fill="#1D39C4"/>
<path d="M546.65 434.977V642.936C546.65 651.377 548.056 657.388 550.869 660.969C553.682 664.551 558.413 666.341 565.061 666.341C568.897 666.341 572.094 666.085 574.651 665.574C577.208 665.062 580.276 664.295 583.857 663.272L579.637 702.408C575.034 705.221 569.025 707.524 561.609 709.314C554.193 711.105 546.906 712 539.745 712C519.288 712 504.457 707.268 495.251 697.803C486.045 688.339 481.442 672.864 481.442 651.377V434.977H546.65Z" fill="#1D39C4"/>
<path d="M672.519 712C659.478 712 647.97 709.826 637.997 705.477C628.28 700.873 620.609 693.583 614.983 683.607C609.357 673.631 606.544 660.586 606.544 644.471V516.319H671.752V629.123C671.752 641.401 674.181 649.97 679.04 654.83C683.898 659.69 690.803 662.121 699.753 662.121C704.356 662.121 708.703 661.353 712.794 659.818C716.886 658.028 720.466 655.47 723.534 652.145C726.603 648.564 728.904 644.087 730.439 638.716C732.229 633.088 733.124 626.565 733.124 619.148V516.319H798.331V708.163H740.028L738.11 672.096C731.973 685.653 723.407 695.757 712.411 702.408C701.415 708.803 688.118 712 672.519 712Z" fill="#1D39C4"/>
<path d="M938.773 712C917.549 712 899.137 708.035 883.539 700.106C868.196 692.176 856.305 680.793 847.866 665.957C839.428 651.122 835.208 633.216 835.208 612.241C835.208 591.266 839.428 573.361 847.866 558.525C856.305 543.689 868.068 532.306 883.155 524.377C898.498 516.447 916.015 512.482 935.705 512.482C955.906 512.482 973.039 516.447 987.104 524.377C1001.42 532.05 1012.29 542.794 1019.71 556.606C1027.12 570.163 1030.83 585.767 1030.83 603.416C1030.83 608.021 1030.7 612.625 1030.45 617.229C1030.19 621.833 1029.81 625.67 1029.3 628.74H877.401V593.824H1000.53L969.459 605.718C969.459 590.371 966.646 578.604 961.021 570.419C955.651 562.234 947.212 558.141 935.705 558.141C927.522 558.141 920.49 560.06 914.608 563.896C908.982 567.733 904.635 573.744 901.567 581.93C898.754 590.115 897.347 600.603 897.347 613.392C897.347 625.926 899.009 636.158 902.334 644.087C905.658 651.761 910.389 657.388 916.526 660.969C922.663 664.295 930.079 665.957 938.773 665.957C948.491 665.957 956.162 664.039 961.788 660.202C967.669 656.365 972.016 650.994 974.829 644.087L1027 661.353C1023.42 672.352 1017.15 681.689 1008.2 689.362C999.506 696.78 989.021 702.408 976.747 706.245C964.728 710.082 952.071 712 938.773 712Z" fill="#1D39C4"/>
<path d="M1147.86 712C1128.68 712 1110.78 708.93 1094.16 702.791C1077.79 696.397 1064.24 687.316 1053.5 675.55L1084.19 639.483C1090.58 647.668 1099.02 654.575 1109.5 660.202C1120.24 665.574 1132.13 668.26 1145.18 668.26C1153.1 668.26 1159.62 667.108 1164.74 664.806C1169.85 662.504 1172.41 658.923 1172.41 654.063C1172.41 650.482 1171.13 647.668 1168.57 645.622C1166.02 643.32 1160.9 641.401 1153.23 639.867L1126.38 634.495C1102.34 629.635 1085.21 622.473 1074.98 613.008C1065.01 603.288 1060.02 590.627 1060.02 575.023C1060.02 564.536 1063.22 554.56 1069.61 545.096C1076 535.376 1085.85 527.574 1099.15 521.691C1112.44 515.552 1129.45 512.482 1150.16 512.482C1169.6 512.482 1186.73 515.296 1201.56 520.923C1216.39 526.551 1228.15 534.736 1236.85 545.479L1205.78 580.779C1199.64 573.105 1191.72 567.094 1182 562.745C1172.28 558.397 1162.56 556.223 1152.85 556.223C1146.71 556.223 1141.47 556.862 1137.12 558.141C1133.03 559.164 1129.96 560.699 1127.91 562.745C1125.87 564.792 1124.85 567.35 1124.85 570.419C1124.85 573.744 1126.38 576.686 1129.45 579.244C1132.77 581.546 1138.78 583.592 1147.48 585.383L1182.38 592.289C1202.07 595.87 1216.26 602.393 1224.96 611.857C1233.65 621.322 1238 632.704 1238 646.006C1238 658.539 1234.68 669.794 1228.03 679.77C1221.38 689.746 1211.41 697.676 1198.11 703.559C1184.81 709.186 1168.06 712 1147.86 712Z" fill="#1D39C4"/>
</svg>
