<svg width="160" height="160" viewBox="0 0 160 160" fill="none" xmlns="http://www.w3.org/2000/svg">
<path fill-rule="evenodd" clip-rule="evenodd" d="M80 104C93.2548 104 104 93.2548 104 80C104 66.7452 93.2548 56 80 56C66.7452 56 56 66.7452 56 80C56 93.2548 66.7452 104 80 104ZM80 96C88.8366 96 96 88.8366 96 80C96 71.1634 88.8366 64 80 64C71.1634 64 64 71.1634 64 80C64 88.8366 71.1634 96 80 96Z" fill="white"/>
<path fill-rule="evenodd" clip-rule="evenodd" d="M32 56C45.2548 56 56 45.2548 56 32C56 18.7452 45.2548 8 32 8C18.7452 8 8 18.7452 8 32C8 45.2548 18.7452 56 32 56ZM32 48C40.8366 48 48 40.8366 48 32C48 23.1634 40.8366 16 32 16C23.1634 16 16 23.1634 16 32C16 40.8366 23.1634 48 32 48Z" fill="white"/>
<path fill-rule="evenodd" clip-rule="evenodd" d="M160 80C160 124.183 124.183 160 80 160C35.8172 160 0 124.183 0 80C0 62.9338 5.3439 47.1158 14.4497 34.1279C15.2928 37.934 17.2775 41.3109 20.0261 43.8809C13.6618 54.4258 10 66.7853 10 80C10 118.66 41.3401 150 80 150C118.66 150 150 118.66 150 80C150 41.3401 118.66 10 80 10C68.3309 10 57.3287 12.8553 47.654 17.9053C45.2475 14.993 41.9895 12.8101 38.2614 11.7379C50.4125 4.29224 64.705 0 80 0C124.183 0 160 35.8172 160 80Z" fill="white"/>
</svg>
