<svg width="160" height="161" viewBox="0 0 160 161" fill="none" xmlns="http://www.w3.org/2000/svg">
<path fill-rule="evenodd" clip-rule="evenodd" d="M21.1166 73.8429C32.779 73.8429 42.2333 64.2917 42.2333 52.5096C42.2333 40.7275 32.779 31.1763 21.1166 31.1763C9.45425 31.1763 0 40.7275 0 52.5096C0 64.2917 9.45425 73.8429 21.1166 73.8429ZM21.116 65.6378C28.2928 65.6378 34.1108 59.7601 34.1108 52.5096C34.1108 45.259 28.2928 39.3813 21.116 39.3813C13.9391 39.3813 8.12109 45.259 8.12109 52.5096C8.12109 59.7601 13.9391 65.6378 21.116 65.6378Z" fill="white"/>
<path fill-rule="evenodd" clip-rule="evenodd" d="M138.882 73.8427C150.545 73.8427 159.999 64.2914 159.999 52.5094C159.999 40.7273 150.545 31.176 138.882 31.176C127.22 31.176 117.766 40.7273 117.766 52.5094C117.766 64.2914 127.22 73.8427 138.882 73.8427ZM138.882 65.6378C146.058 65.6378 151.876 59.7601 151.876 52.5096C151.876 45.259 146.058 39.3813 138.882 39.3813C131.705 39.3813 125.887 45.259 125.887 52.5096C125.887 59.7601 131.705 65.6378 138.882 65.6378Z" fill="white"/>
<path fill-rule="evenodd" clip-rule="evenodd" d="M138.882 131.279C150.545 131.279 159.999 121.727 159.999 109.945C159.999 98.1633 150.545 88.6121 138.882 88.6121C127.22 88.6121 117.766 98.1633 117.766 109.945C117.766 121.727 127.22 131.279 138.882 131.279ZM138.882 123.074C146.058 123.074 151.876 117.196 151.876 109.946C151.876 102.695 146.058 96.8174 138.882 96.8174C131.705 96.8174 125.887 102.695 125.887 109.946C125.887 117.196 131.705 123.074 138.882 123.074Z" fill="white"/>
<path fill-rule="evenodd" clip-rule="evenodd" d="M21.1166 131.279C32.779 131.279 42.2333 121.727 42.2333 109.945C42.2333 98.1633 32.779 88.6121 21.1166 88.6121C9.45425 88.6121 0 98.1633 0 109.945C0 121.727 9.45425 131.279 21.1166 131.279ZM21.116 123.074C28.2928 123.074 34.1108 117.196 34.1108 109.945C34.1108 102.695 28.2928 96.8171 21.116 96.8171C13.9391 96.8171 8.12109 102.695 8.12109 109.945C8.12109 117.196 13.9391 123.074 21.116 123.074Z" fill="white"/>
<path fill-rule="evenodd" clip-rule="evenodd" d="M79.5971 102.561C91.2595 102.561 100.714 93.0097 100.714 81.2276C100.714 69.4455 91.2595 59.8943 79.5971 59.8943C67.9347 59.8943 58.4805 69.4455 58.4805 81.2276C58.4805 93.0097 67.9347 102.561 79.5971 102.561ZM79.5964 94.356C86.7733 94.356 92.5913 88.4783 92.5913 81.2278C92.5913 73.9773 86.7733 68.0996 79.5964 68.0996C72.4196 68.0996 66.6016 73.9773 66.6016 81.2278C66.6016 88.4783 72.4196 94.356 79.5964 94.356Z" fill="white"/>
<path fill-rule="evenodd" clip-rule="evenodd" d="M79.5971 43.484C91.2595 43.484 100.714 33.9328 100.714 22.1507C100.714 10.3686 91.2595 0.817383 79.5971 0.817383C67.9347 0.817383 58.4805 10.3686 58.4805 22.1507C58.4805 33.9328 67.9347 43.484 79.5971 43.484ZM79.5964 35.279C86.7733 35.279 92.5913 29.4013 92.5913 22.1508C92.5913 14.9003 86.7733 9.02263 79.5964 9.02263C72.4196 9.02263 66.6016 14.9003 66.6016 22.1508C66.6016 29.4013 72.4196 35.279 79.5964 35.279Z" fill="white"/>
<path fill-rule="evenodd" clip-rule="evenodd" d="M79.5971 160.817C91.2595 160.817 100.714 151.266 100.714 139.484C100.714 127.702 91.2595 118.151 79.5971 118.151C67.9347 118.151 58.4805 127.702 58.4805 139.484C58.4805 151.266 67.9347 160.817 79.5971 160.817ZM79.5964 152.612C86.7733 152.612 92.5913 146.735 92.5913 139.484C92.5913 132.234 86.7733 126.356 79.5964 126.356C72.4196 126.356 66.6016 132.234 66.6016 139.484C66.6016 146.735 72.4196 152.612 79.5964 152.612Z" fill="white"/>
<path fill-rule="evenodd" clip-rule="evenodd" d="M83.6529 42.2534H75.5311V63.6239C76.8391 63.3308 78.1988 63.1763 79.5942 63.1763C80.988 63.1763 82.3461 63.3305 83.6529 63.6229V42.2534ZM93.0647 68.9734C94.9426 70.9475 96.3993 73.3335 97.289 75.9839L123.186 60.8789L119.125 53.7731L93.0647 68.9734ZM97.4835 87.4983C96.6832 90.1829 95.307 92.6154 93.5 94.6493L121.157 110.781L125.218 103.675L97.4835 87.4983ZM83.6529 100.473C82.3461 100.766 80.988 100.92 79.5942 100.92C78.1988 100.92 76.8391 100.765 75.5311 100.472V120.202H83.6529V100.473ZM65.5527 94.4949C63.7683 92.442 62.418 89.9945 61.6466 87.2987L37.0131 101.667L41.074 108.773L65.5527 94.4949ZM61.8348 76.1798C62.6959 73.5185 64.1267 71.1175 65.9818 69.1241L41.014 54.5611L36.9531 61.6669L61.8348 76.1798Z" fill="white"/>
<path fill-rule="evenodd" clip-rule="evenodd" d="M96.6407 27.5803C95.7355 30.4834 94.1237 33.0699 92.009 35.134L121.024 52.0576C121.102 48.8498 122.008 45.8497 123.535 43.2671L96.6407 27.5803ZM67.1827 35.1353C65.0674 33.071 63.455 30.4839 62.5497 27.5801L35.6567 43.266C37.184 45.8491 38.0907 48.85 38.1686 52.0585L67.1827 35.1353ZM25.084 69.9085V91.726C28.5538 92.6964 31.5997 94.6978 33.8781 97.3833V64.2513C31.5997 66.9368 28.5538 68.9381 25.084 69.9085ZM62.8927 135.075L35.2838 118.972C36.9002 116.468 37.918 113.533 38.1319 110.375L66.7253 127.053C64.839 129.32 63.4943 132.062 62.8927 135.075ZM125.316 97.3813V64.2533C127.594 66.9371 130.638 68.9374 134.106 69.9078V91.7267C130.638 92.6972 127.594 94.6975 125.316 97.3813ZM123.908 118.971C122.292 116.467 121.275 113.533 121.061 110.376L93.5435 126.426C95.531 128.603 96.9953 131.274 97.7345 134.237L123.908 118.971Z" fill="white"/>
</svg>
